# xmcd
#
# Track frame offsets: 
#        182
#        12795
#        26672
#        36745
#        47455
#        60540
#        75120
#        87185
#        98292
#        108230
#        118662
#        129245
#        141972
#        153430
#        166047
#        178115
#        188915
#
# Disc length: 2686 seconds
#
# Revision: 4
# Processed by: cddbd v1.5.2PL0 Copyright (c) Steve Scherf et al.
# Submitted via: ExactAudioCopy v0.99pb5
#
DISCID=c70a7c11
DTITLE=Jimmy Reed - Blues Masters: The Very Best Of Jimmy Reed
DYEAR=2000
DGENRE=
TTITLE0=High And Lonesome
TTITLE1=You Don't Have To Go
TTITLE2=Ain't That Lovin' You Baby
TTITLE3=I Ain't Got You
TTITLE4=You've Got Me Dizzy
TTITLE5=Little Rain
TTITLE6=Honest I Do
TTITLE7=Odds And Ends
TTITLE8=Ends And Odds
TTITLE9=Going To New York
TTITLE10=Take Out Some Insurance
TTITLE11=Baby What You Want Me To Do
TTITLE12=Hush-Hush
TTITLE13=Big Boss Man
TTITLE14=Bright Lights Big City
TTITLE15=Oh John
TTITLE16=Shame Shame Shame
EXTD=
EXTT0=
EXTT1=
EXTT2=
EXTT3=
EXTT4=
EXTT5=
EXTT6=
EXTT7=
EXTT8=
EXTT9=
EXTT10=
EXTT11=
EXTT12=
EXTT13=
EXTT14=
EXTT15=
EXTT16=
PLAYORDER=
